<svg id="Ebene_2" data-name="Ebene 2" xmlns="http://www.w3.org/2000/svg" viewBox="0 0 58.99 59.09">
  <defs>
    <style>.cls-1{fill:#2C8BC2;}</style>
  </defs>
  <title>Icon 002_Aktion ausführen</title>
  <path class="cls-1"
        d="M53.78,54.44v0C61.9,46.69,69.3,35,69.65,17.84a.64.64,0,0,0-.7-.7c-17.15.35-28.88,7.77-36.61,15.91C21.21,27,11.08,37.28,11,37.39a1.46,1.46,0,0,0-.2,1.55,1.69,1.69,0,0,0,.29.41,1.45,1.45,0,0,0,1,.42c8.69,0,9.85,7.61,9.9,7.95l0,.13a47.74,47.74,0,0,0-2.8,6.68A1.47,1.47,0,0,0,19.6,56l5.22,5.21.78.79,5.22,5.22a1.46,1.46,0,0,0,1.44.36,47.23,47.23,0,0,0,6.59-2.75l.31.08c.35,0,7.93,1.2,8,9.9a1.42,1.42,0,0,0,.43,1,1.22,1.22,0,0,0,.41.29,1.46,1.46,0,0,0,1.54-.19C49.61,75.8,60,65.61,53.78,54.44ZM15.69,37.27c3.1-2.14,8.7-4.81,14.63-2a61.42,61.42,0,0,0-6.33,9A12,12,0,0,0,15.69,37.27ZM32.24,64.5l-4.58-4.58-.79-.79-4.58-4.59c1.79-5.21,12.62-32.43,44.34-34.38C64.68,51.88,37.46,62.71,32.24,64.5ZM42.5,62.83a61,61,0,0,0,9-6.39c2.93,6,.24,11.63-1.92,14.76A12,12,0,0,0,42.5,62.83Z"
        transform="translate(-10.66 -17.14)"/>
  <path class="cls-1" d="M50.69,30.9a3.68,3.68,0,1,0,5.2,0A3.67,3.67,0,0,0,50.69,30.9Z"
        transform="translate(-10.66 -17.14)"/>
  <path class="cls-1"
        d="M23.92,62.86a4.42,4.42,0,0,0-6.24,0c-1.73,1.73-5.71,8.51-4,10.23s8.51-2.25,10.23-4A4.41,4.41,0,0,0,23.92,62.86Z"
        transform="translate(-10.66 -17.14)"/>
  <path class="cls-1" d="M41.06,46,32.6,37.58a51.78,51.78,0,0,0-3.78,4.94L44.25,58a51.26,51.26,0,0,0,5-3.78l-8-8Z"
        transform="translate(-10.66 -17.14)"/>
  <path class="cls-1"
        d="M22.69,54.51l4.95,5,.11.11,4.52,4.52a44.52,44.52,0,0,0,6.19-2.66L25.35,48.31A42.84,42.84,0,0,0,22.69,54.51Z"
        transform="translate(-10.66 -17.14)"/>
</svg>
