<svg id="Ebene_3" data-name="Ebene 3" xmlns="http://www.w3.org/2000/svg" viewBox="0 0 69 51.52">
  <defs>
    <style>.cls-1{fill:#2C8BC2;fill-rule:evenodd;}</style>
  </defs>
  <title>Icon 003_Sende Nachricht</title>
  <path class="cls-1"
        d="M68.84,21.41H17.61c-7.77,0-9,4.48-9,8.3v24c0,5.76,3.14,9.9,8.37,10.41v8.78l9.73-8.66H68.84c5.24,0,8.81-4,8.81-10.53v-24C77.65,23.92,74.63,21.41,68.84,21.41Zm4.63,32.34c0,6.28-3.59,6.35-4.63,6.35H25.2l-4,3.74V60.1H17.61c-3.85,0-4.77-3.45-4.77-6.35v-24c0-2.65.4-4.11,4.77-4.11H68.84c3.48,0,4.63.63,4.63,4.11Z"
        transform="translate(-8.65 -21.41)"/>
  <path class="cls-1"
        d="M57,38.73a4.15,4.15,0,0,0-4,4.15,4.09,4.09,0,0,0,4.13,4,4,4,0,0,0,4-4.12A4.1,4.1,0,0,0,57,38.73Z"
        transform="translate(-8.65 -21.41)"/>
  <path class="cls-1" d="M27.33,38.74a4.07,4.07,0,0,0-.13,8.13,4.07,4.07,0,0,0,.13-8.13Z"
        transform="translate(-8.65 -21.41)"/>
  <path class="cls-1" d="M42,38.75a4.06,4.06,0,1,0,4,4A4,4,0,0,0,42,38.75Z" transform="translate(-8.65 -21.41)"/>
</svg>
