<svg id="Ebene_6" data-name="Ebene 6" xmlns="http://www.w3.org/2000/svg" viewBox="0 0 59.78 60.49">
  <defs>
    <style>.cls-1{fill:#2C8BC2;fill-rule:evenodd;}</style>
  </defs>
  <title>Icon 006_Warte</title>
  <path class="cls-1"
        d="M70.56,43.41A27.11,27.11,0,0,0,67,32.73a26.93,26.93,0,0,0-17-13,23.63,23.63,0,0,0-5.42-.84,27.32,27.32,0,0,0-27.91,21.5,23.37,23.37,0,0,0-.63,5.89,27.2,27.2,0,0,0,6.48,17.16,26.84,26.84,0,0,0,5.47,5L26.3,70.16a2.34,2.34,0,1,0,3.31,3.3l2.7-2.7A30.52,30.52,0,0,0,37,72.34a24.53,24.53,0,0,0,6.93.81,27.39,27.39,0,0,0,10.7-2.48l2.79,2.79a2.33,2.33,0,1,0,3.3-3.3L58.8,68.28A26.92,26.92,0,0,0,69.86,52.1a24.84,24.84,0,0,0,.83-5.26v-.77C70.68,45.34,70.63,44.14,70.56,43.41Zm-4.7,4.24a21.46,21.46,0,0,1-2.55,9,22.55,22.55,0,0,1-5.44,6.65,21.59,21.59,0,0,1-9.18,4.65,21.15,21.15,0,0,1-4.74.59A22.54,22.54,0,0,1,21.4,51.43a23.48,23.48,0,0,1-.54-7.38,21,21,0,0,1,4-11,22.32,22.32,0,0,1,12.72-8.84,23.25,23.25,0,0,1,7.1-.66,21.47,21.47,0,0,1,12.54,4.67,22.11,22.11,0,0,1,8.24,13A23.74,23.74,0,0,1,65.86,47.65Z"
        transform="translate(-13.41 -13.65)"/>
  <path class="cls-1"
        d="M44.74,42.26V32.82a2.16,2.16,0,0,0-.36-1.23,1.48,1.48,0,0,0-1.64-.54,1.67,1.67,0,0,0-1.09,1.73q0,4.66,0,9.33a4,4,0,0,0-2.4,2.49H28.43a1.25,1.25,0,0,0,0,2.5H39.51A3.33,3.33,0,0,0,43,49.52a3.85,3.85,0,0,0,4-3.83A3.74,3.74,0,0,0,44.74,42.26Z"
        transform="translate(-13.41 -13.65)"/>
  <path class="cls-1" d="M17,31.87a26,26,0,0,1,7-8.72,28,28,0,0,1,8.44-4.77A10.36,10.36,0,1,0,17,31.87Z"
        transform="translate(-13.41 -13.65)"/>
  <path class="cls-1"
        d="M69.57,31.87A10.36,10.36,0,1,0,54.14,18.38a28.12,28.12,0,0,1,8.44,4.77A26.08,26.08,0,0,1,69.57,31.87Z"
        transform="translate(-13.41 -13.65)"/>
</svg>
