<svg id="Ebene_1" data-name="Ebene 1" xmlns="http://www.w3.org/2000/svg" viewBox="0 0 68.44 59.57">
  <defs>
    <style>.cls-1{fill:#2C8BC2;fill-rule:evenodd;}</style>
  </defs>
  <title>Icon 001_andere Kampagne starten</title>
  <path class="cls-1"
        d="M33.64,34.74a6.37,6.37,0,0,0-1.38.09,1,1,0,0,0-.57,1.57,7.39,7.39,0,0,0,.79.89l9.38,9.38c1.53,1.52,1.78,1.51,3.36-.06q4.64-4.61,9.25-9.25a7.3,7.3,0,0,0,.8-.87,1,1,0,0,0-.8-1.72c-1-.07-2,0-3,0-.64,0-1.28,0-2-.08a6.67,6.67,0,0,1-.19-2.27V16.14a13.25,13.25,0,0,0-.07-1.78,2.06,2.06,0,0,0-2-1.89q-3.76-.11-7.53,0a2.11,2.11,0,0,0-2.08,2,17.49,17.49,0,0,0,0,1.78c0,5.48,0,11,0,16.44a2.8,2.8,0,0,1-.38,2.05C36.13,34.74,34.89,34.73,33.64,34.74Z"
        transform="translate(-9.07 -12.42)"/>
  <path class="cls-1"
        d="M77.46,35.8a8.81,8.81,0,0,0-1.35-4.57,7.92,7.92,0,0,0-5.77-3.95A38.16,38.16,0,0,0,63.67,27l-12.4.18v4.26H63c1.38,0,2.73-.08,4.11-.08a19.1,19.1,0,0,1,2.39.09,4.36,4.36,0,0,1,3.63,3.22,1.21,1.21,0,0,1-.35,1.26,16.59,16.59,0,0,1-1.57,1.34Q63.54,43,55.84,48.67c-3.14,2.33-6.26,4.69-9.38,7-.23.17-.46.34-.7.5a4.06,4.06,0,0,1-4.41.22A20.75,20.75,0,0,1,39,54.93Q30.1,48.3,21.19,41.65c-2-1.47-4-2.92-6-4.39-.41-.31-.83-.62-1.21-1a1.72,1.72,0,0,1-.38-2.45,4.38,4.38,0,0,1,2.31-2,8.46,8.46,0,0,1,1.67-.39,42.53,42.53,0,0,1,7.57-.2c3,.09,6,.15,9,.18h1.07V27.22H32.79c-2.29,0-4.53-.09-6.83-.12-1.95,0-3.87-.1-5.83-.06a28.67,28.67,0,0,0-3.92.34,8.27,8.27,0,0,0-7.14,8.41q0,13.71.08,27.43a7.83,7.83,0,0,0,.21,1.87,8.55,8.55,0,0,0,8.1,6.79c2.42.2,4.83.06,7.24,0,6.15,0,12.31,0,18.46,0H62.65c2.13,0,4.26,0,6.38,0a8.31,8.31,0,0,0,5.41-1.95,8.59,8.59,0,0,0,3.07-6.67Q77.47,49.52,77.46,35.8ZM73.2,38.47a9.81,9.81,0,0,1,0,1.31c.06,1.27,0,2.54,0,3.8q0,7.85,0,15.67c0,.33,0,.66-.08,1.12a3,3,0,0,1-.7-.25L59.06,50.2a8,8,0,0,1-.62-.56C59.69,48.34,71.32,39.54,73.2,38.47ZM13.3,40.61c0-.62,0-1.23,0-1.91a2,2,0,0,1,.58.11c4.21,2.77,13,9.49,14.16,10.83-1.3,1.21-13.11,9.9-14.39,10.59-.51-.29-.31-.8-.31-1.21Q13.32,49.81,13.3,40.61ZM73.05,65A4.23,4.23,0,0,1,70,67.46a15.82,15.82,0,0,1-2.57.21l-44.47,0c-1.32,0-2.64.05-4,.06a16.49,16.49,0,0,1-1.72-.07,4.36,4.36,0,0,1-3.67-3,1.43,1.43,0,0,1,.34-1.73,7.1,7.1,0,0,1,1.2-1c2.83-1.76,5.38-3.91,8-5.92,1.84-1.38,3.7-2.73,5.56-4.07.46-.33,1-.59,1.53-.94.56.37,1.09.69,1.59,1.07,1.79,1.35,3.56,2.72,5.34,4.08.77.59,1.53,1.22,2.35,1.74a6.6,6.6,0,0,0,7.61-.05c.78-.49,1.49-1.07,2.22-1.63l6.58-5a4.39,4.39,0,0,1,.53-.26c.36.23.75.46,1.11.73l14.3,10.51c.23.17.46.34.68.53A1.58,1.58,0,0,1,73.05,65Z"
        transform="translate(-9.07 -12.42)"/>
</svg>
