<svg id="Ebene_7" data-name="Ebene 7" xmlns="http://www.w3.org/2000/svg" viewBox="0 0 53.89 56.01">
  <defs>
    <style>.cls-1{fill:#2C8BC2;}</style>
  </defs>
  <title>Icon 007_Texteingabe durch Nutzer</title>
  <path class="cls-1"
        d="M70.33,30.34,57.89,17.91a1.09,1.09,0,0,0-1.55,0l-.78.77-5.44,5.44L21,53.28a1,1,0,0,0-.29.52L16.79,70.12a1.1,1.1,0,0,0,.29,1,1.09,1.09,0,0,0,1,.29l16.33-3.89a1.12,1.12,0,0,0,.52-.29L70.33,31.9A1.1,1.1,0,0,0,70.33,30.34ZM29.08,66.58c-.95-5.13-5.29-7.17-7.32-7.84l1-4.05,4.2.37.44,5.08a.54.54,0,0,0,.16.34.6.6,0,0,0,.34.16l5.08.44.39,4.48Zm5.28-1.82L34,60.52a.55.55,0,0,0-.5-.5l-5.07-.44L28,54.5a.55.55,0,0,0-.5-.5l-3.79-.33,28-28L62.56,36.56Z"
        transform="translate(-16.76 -17.58)"/>
  <path class="cls-1"
        d="M31,53.24l.07.07a.5.5,0,0,0,.71,0l21-21.06a.5.5,0,0,0,0-.71l-.06-.06a.51.51,0,0,0-.72,0L31,52.53A.5.5,0,0,0,31,53.24Z"
        transform="translate(-16.76 -17.58)"/>
  <path class="cls-1"
        d="M31,45.73H60.73a.5.5,0,0,1,.5.5v.09a.51.51,0,0,1-.51.51H31a.5.5,0,0,1-.5-.5v-.09A.5.5,0,0,1,31,45.73Z"
        transform="translate(-36.06 28.39) rotate(-45)"/>
  <path class="cls-1"
        d="M42,72.44l-.6,0c.18-.29.39-.59.59-.87.69-.92,1.41-1.84,2.13-2.75h0a.55.55,0,0,0,.11-.43.54.54,0,0,0-.63-.43l-6.2,1.18c-2.06.39-4.13.78-6.19,1.22L25,71.68c-2.05.46-4.11.89-6.16,1.38,2.09-.26,4.17-.58,6.25-.88l6.24-1c2.08-.31,4.15-.68,6.22-1l4.8-.85c-.43.56-.86,1.12-1.27,1.7a10.09,10.09,0,0,0-1,1.61,1,1,0,0,0-.06.51.59.59,0,0,0,.58.47l.17,0h0l.43,0,.88-.09c1.16-.11,2.33-.26,3.49-.33s2.32-.17,3.48-.28l7-.63c2.34-.24,4.67-.45,7-.72-4.7,0-9.36.24-14.08.47C46.69,72.07,44.33,72.22,42,72.44Zm-1.41.13h0Z"
        transform="translate(-16.76 -17.58)"/>
</svg>
